<?xml version="1.0" standalone="no"?>
<!DOCTYPE svg PUBLIC "-//W3C//DTD SVG 20010904//EN"
 "http://www.w3.org/TR/2001/REC-SVG-20010904/DTD/svg10.dtd">
<svg version="1.0" xmlns="http://www.w3.org/2000/svg"
 width="70.000000pt" height="70.000000pt" viewBox="0 0 70.000000 70.000000"
 preserveAspectRatio="xMidYMid meet">
<metadata>
Created by potrace 1.11, written by Peter Selinger 2001-2013
</metadata>
<g transform="translate(0.000000,70.000000) scale(0.100000,-0.100000)"
fill="#000000" stroke="none">
<path d="M397 663 c-11 -11 -8 -58 5 -71 17 -17 26 -15 38 7 19 36 -17 90 -43
64z"/>
<path d="M541 594 c-36 -45 -1 -75 38 -33 15 17 18 26 10 40 -13 25 -24 24
-48 -7z"/>
<path d="M249 584 c-11 -14 -9 -20 15 -41 15 -13 33 -22 40 -20 21 7 18 37 -6
57 -28 24 -32 24 -49 4z"/>
<path d="M373 534 c-17 -9 -39 -31 -48 -50 -15 -32 -18 -34 -54 -28 -57 9 -99
-9 -168 -74 -64 -59 -68 -69 -65 -141 2 -31 26 -67 60 -88 15 -9 39 -28 54
-41 28 -26 63 -30 158 -18 25 3 55 5 67 5 39 1 80 47 99 109 9 31 16 72 16 90
-1 17 3 32 7 32 17 0 51 67 51 100 0 43 -27 86 -66 105 -40 19 -71 19 -111 -1z
m95 -51 c28 -24 36 -63 19 -87 -14 -19 -15 -19 -41 2 -15 11 -40 23 -55 27
-23 5 -28 10 -24 26 6 23 40 49 64 49 9 0 26 -8 37 -17z m-189 -84 c17 -6 31
-14 31 -19 0 -4 15 -7 32 -5 83 6 110 -39 85 -140 -3 -11 -6 -25 -6 -32 -2
-21 -43 -53 -69 -53 -13 0 -32 5 -43 10 -10 6 -19 7 -19 2 0 -15 -45 -30 -74
-25 -15 3 -34 16 -43 29 -8 13 -19 22 -23 19 -4 -2 -19 6 -34 20 -31 29 -35
83 -8 108 43 40 98 85 112 90 22 8 24 8 59 -4z"/>
<path d="M595 455 c-19 -14 -19 -16 -2 -29 25 -19 72 -6 72 20 0 25 -43 31
-70 9z"/>
<path d="M547 333 c-14 -13 -5 -39 19 -57 23 -16 27 -17 41 -3 14 14 13 18
-10 41 -27 27 -39 31 -50 19z"/>
</g>
</svg>
