<?xml version="1.0" encoding="utf-8"?>
<!-- Generator: Adobe Illustrator 16.0.4, SVG Export Plug-In . SVG Version: 6.00 Build 0)  -->
<!DOCTYPE svg PUBLIC "-//W3C//DTD SVG 1.1//EN" "http://www.w3.org/Graphics/SVG/1.1/DTD/svg11.dtd">
<svg version="1.1" id="Ebene_1" xmlns="http://www.w3.org/2000/svg" xmlns:xlink="http://www.w3.org/1999/xlink" x="0px" y="0px"
	 width="96px" height="96px" viewBox="0 0 96 96" enable-background="new 0 0 96 96" xml:space="preserve">
<g id="Base" display="none">
</g>
<g id="Dibujo">
	<path d="M71.899,27.481c0.864,0,1.729-0.33,2.39-0.99l4.778-4.781c1.321-1.32,1.321-3.459,0-4.779c-1.319-1.32-3.46-1.32-4.778,0
		l-4.779,4.78c-1.32,1.32-1.32,3.46,0,4.779C70.168,27.152,71.032,27.481,71.899,27.481z M17.582,48c0-1.866-1.514-3.38-3.379-3.38
		h-6.76c-1.866,0-3.38,1.514-3.38,3.38c0,1.865,1.514,3.38,3.38,3.38h6.76C16.068,51.38,17.582,49.865,17.582,48z M21.712,69.51
		l-4.78,4.779c-1.32,1.32-1.32,3.459,0,4.778c0.659,0.661,1.524,0.991,2.389,0.991c0.865,0,1.731-0.33,2.39-0.991l4.781-4.778
		c1.32-1.32,1.32-3.461,0-4.779C25.173,68.189,23.03,68.189,21.712,69.51z M21.712,26.491c0.659,0.661,1.525,0.99,2.39,0.99
		c0.865,0,1.73-0.33,2.39-0.99c1.32-1.319,1.32-3.459,0-4.779l-4.781-4.78c-1.318-1.32-3.461-1.32-4.779,0
		c-1.32,1.32-1.32,3.459,0,4.779L21.712,26.491z M48,17.582c1.865,0,3.38-1.514,3.38-3.379v-6.76c0-1.866-1.515-3.38-3.38-3.38
		c-1.866,0-3.38,1.514-3.38,3.38v6.76C44.62,16.068,46.134,17.582,48,17.582z M88.557,44.62h-6.759c-1.865,0-3.38,1.514-3.38,3.38
		c0,1.865,1.515,3.38,3.38,3.38h6.759c1.865,0,3.381-1.515,3.381-3.38C91.938,46.134,90.422,44.62,88.557,44.62z M74.289,69.51
		c-1.32-1.32-3.463-1.32-4.779,0c-1.32,1.318-1.32,3.459,0,4.779l4.779,4.778c0.659,0.661,1.524,0.991,2.39,0.991
		c0.864,0,1.729-0.33,2.389-0.991c1.321-1.319,1.321-3.458,0-4.778L74.289,69.51z M48,78.418c-1.866,0-3.38,1.515-3.38,3.38v6.759
		c0,1.865,1.514,3.381,3.38,3.381c1.865,0,3.38-1.516,3.38-3.381v-6.759C51.38,79.933,49.865,78.418,48,78.418z M48,24.341
		c-13.046,0-23.659,10.613-23.659,23.659c0,13.047,10.612,23.658,23.659,23.658c13.047,0,23.658-10.611,23.658-23.658
		C71.658,34.955,61.047,24.341,48,24.341z M48,64.898c-9.318,0-16.899-7.581-16.899-16.898c0-9.318,7.581-16.899,16.899-16.899
		c9.317,0,16.898,7.581,16.898,16.899C64.898,57.317,57.317,64.898,48,64.898z"/>
</g>
</svg>
