<?xml version="1.0" encoding="utf-8"?>
<!-- Generator: Adobe Illustrator 16.0.4, SVG Export Plug-In . SVG Version: 6.00 Build 0)  -->
<!DOCTYPE svg PUBLIC "-//W3C//DTD SVG 1.1//EN" "http://www.w3.org/Graphics/SVG/1.1/DTD/svg11.dtd">
<svg version="1.1" id="Ebene_1" xmlns="http://www.w3.org/2000/svg" xmlns:xlink="http://www.w3.org/1999/xlink" x="0px" y="0px"
	 width="96px" height="96px" viewBox="0 0 96 96" enable-background="new 0 0 96 96" xml:space="preserve">
<g id="Base" display="none">
</g>
<g id="Dibujo">
	<g>
		<path d="M75.273,37.423c-0.769,0-1.688,0.119-2.562,0.28C69.541,26.837,59.615,19.244,48,19.244
			c-11.611,0-21.541,7.594-24.714,18.46c-0.874-0.162-1.79-0.28-2.557-0.28c-9.188,0-16.666,7.476-16.666,16.665
			c0,9.193,7.478,16.671,16.666,16.671h54.544c9.182,0,16.664-7.478,16.664-16.671C91.938,44.899,84.455,37.423,75.273,37.423z
			 M75.273,64.7H20.729c-5.848,0-10.607-4.765-10.607-10.612c0-5.845,4.759-10.603,10.607-10.603c0.419,0,1.096,0.104,1.809,0.245
			v2.785c0,1.675,1.356,3.029,3.03,3.029c1.672,0,3.029-1.354,3.029-3.029v-4.888C30.229,32.157,38.354,25.305,48,25.305
			c9.654,0,17.776,6.86,19.406,16.336v4.873c0,1.675,1.357,3.029,3.028,3.029s3.029-1.354,3.029-3.029v-2.784
			c0.716-0.141,1.392-0.246,1.81-0.246c5.846,0,10.602,4.757,10.602,10.603C85.875,59.936,81.119,64.7,75.273,64.7z"/>
	</g>
</g>
</svg>
