<?xml version="1.0" encoding="utf-8"?>
<!-- Generator: Adobe Illustrator 16.0.4, SVG Export Plug-In . SVG Version: 6.00 Build 0)  -->
<!DOCTYPE svg PUBLIC "-//W3C//DTD SVG 1.1//EN" "http://www.w3.org/Graphics/SVG/1.1/DTD/svg11.dtd">
<svg version="1.1" id="Ebene_1" xmlns="http://www.w3.org/2000/svg" xmlns:xlink="http://www.w3.org/1999/xlink" x="0px" y="0px"
	 width="96px" height="96px" viewBox="0 0 96 96" enable-background="new 0 0 96 96" xml:space="preserve">
<g id="Base" display="none">
</g>
<g id="Dibujo">
	<g>
		<path d="M10.929,53.56c1.515,0,2.746-1.233,2.746-2.749c0-5.294,4.312-9.607,9.61-9.607c0.38,0,0.994,0.092,1.638,0.22v2.524
			c0,1.516,1.232,2.746,2.747,2.746s2.744-1.23,2.744-2.746v-4.419C31.891,30.943,39.252,24.725,48,24.725
			s16.11,6.218,17.585,14.803v4.419c0,1.516,1.227,2.746,2.747,2.746c1.519,0,2.742-1.23,2.742-2.746v-2.524
			c0.65-0.128,1.261-0.22,1.639-0.22c5.303,0,9.614,4.313,9.614,9.607c0,1.516,1.23,2.749,2.745,2.749s2.743-1.233,2.743-2.749
			c0-8.325-6.772-15.1-15.103-15.1c-0.695,0-1.524,0.108-2.316,0.251C67.523,26.116,58.526,19.234,48,19.234
			c-10.522,0-19.524,6.882-22.397,16.729c-0.792-0.144-1.623-0.251-2.318-0.251c-8.328,0-15.104,6.775-15.104,15.1
			C8.182,52.326,9.412,53.56,10.929,53.56z"/>
		<path d="M37.015,61.797c0,1.515,1.229,2.748,2.748,2.748H89.19c1.517,0,2.747-1.233,2.747-2.748c0-1.516-1.23-2.749-2.747-2.749
			H39.763C38.244,59.048,37.015,60.281,37.015,61.797z"/>
		<path d="M48,68.663c-1.516,0-2.745,1.234-2.745,2.749s1.229,2.74,2.745,2.74h37.072c1.515,0,2.743-1.226,2.743-2.74
			s-1.229-2.749-2.743-2.749H48z"/>
		<path d="M89.19,78.271H56.237c-1.517,0-2.748,1.234-2.748,2.749s1.231,2.748,2.748,2.748H89.19c1.517,0,2.747-1.233,2.747-2.748
			S90.707,78.271,89.19,78.271z"/>
		<path d="M6.808,64.545h24.715c1.518,0,2.747-1.233,2.747-2.748c0-1.516-1.229-2.749-2.747-2.749H6.808
			c-1.515,0-2.745,1.233-2.745,2.749C4.063,63.312,5.292,64.545,6.808,64.545z"/>
		<path d="M10.929,68.663c-1.517,0-2.747,1.234-2.747,2.749s1.23,2.74,2.747,2.74h28.834c1.515,0,2.745-1.226,2.745-2.74
			s-1.229-2.749-2.745-2.749H10.929z"/>
		<path d="M48,78.271H6.808c-1.515,0-2.745,1.234-2.745,2.749s1.229,2.748,2.745,2.748H48c1.515,0,2.748-1.233,2.748-2.748
			S49.515,78.271,48,78.271z"/>
	</g>
</g>
</svg>
