<?xml version="1.0" encoding="utf-8"?>
<!-- Generator: Adobe Illustrator 16.0.4, SVG Export Plug-In . SVG Version: 6.00 Build 0)  -->
<!DOCTYPE svg PUBLIC "-//W3C//DTD SVG 1.1//EN" "http://www.w3.org/Graphics/SVG/1.1/DTD/svg11.dtd">
<svg version="1.1" id="Ebene_1" xmlns="http://www.w3.org/2000/svg" xmlns:xlink="http://www.w3.org/1999/xlink" x="0px" y="0px"
	 width="96px" height="96px" viewBox="0 0 96 96" enable-background="new 0 0 96 96" xml:space="preserve">
<g id="Base" display="none">
</g>
<g id="Dibujo">
	<g>
		<path d="M75.272,22.243c-0.767,0-1.688,0.12-2.563,0.28C69.542,11.656,59.615,4.063,48,4.063c-11.611,0-21.542,7.593-24.715,18.46
			c-0.874-0.16-1.788-0.28-2.557-0.28c-9.188,0-16.666,7.475-16.666,16.664c0,9.188,7.477,16.666,16.666,16.666h54.544
			c9.187,0,16.665-7.478,16.665-16.666C91.938,29.718,84.459,22.243,75.272,22.243z M75.272,49.515H20.729
			c-5.847,0-10.606-4.756-10.606-10.607c0-5.846,4.76-10.602,10.606-10.602c0.419,0,1.096,0.1,1.81,0.245v2.785
			c0,1.671,1.356,3.029,3.029,3.029c1.672,0,3.029-1.358,3.029-3.029v-4.889c1.631-9.47,9.757-16.324,19.403-16.324
			c9.654,0,17.775,6.862,19.405,16.339v4.873c0,1.671,1.359,3.029,3.029,3.029s3.029-1.358,3.029-3.029v-2.784
			c0.716-0.145,1.392-0.246,1.809-0.246c5.847,0,10.603,4.756,10.603,10.602C85.875,44.758,81.119,49.515,75.272,49.515z"/>
		<path d="M34.364,58.603c1.675,0,3.029,1.358,3.029,3.029c0,1.681-1.354,3.038-3.029,3.038c-1.671,0-3.029-1.357-3.029-3.038
			C31.334,59.961,32.693,58.603,34.364,58.603z"/>
		<path d="M61.632,58.603c1.681,0,3.038,1.358,3.038,3.029c0,1.681-1.357,3.038-3.038,3.038c-1.671,0-3.029-1.357-3.029-3.038
			C58.603,59.961,59.961,58.603,61.632,58.603z"/>
		<path d="M48,67.7c1.671,0,3.029,1.352,3.029,3.029c0,1.67-1.358,3.028-3.029,3.028c-1.676,0-3.029-1.358-3.029-3.028
			C44.971,69.052,46.324,67.7,48,67.7z"/>
		<path d="M61.632,76.787c1.681,0,3.038,1.359,3.038,3.029c0,1.671-1.357,3.029-3.038,3.029c-1.671,0-3.029-1.358-3.029-3.029
			C58.603,78.146,59.961,76.787,61.632,76.787z"/>
		<path d="M48,85.875c1.671,0,3.029,1.358,3.029,3.029c0,1.678-1.358,3.033-3.029,3.033c-1.676,0-3.029-1.355-3.029-3.033
			C44.971,87.233,46.324,85.875,48,85.875z"/>
		<path d="M34.364,76.787c1.675,0,3.029,1.359,3.029,3.029c0,1.671-1.354,3.029-3.029,3.029c-1.671,0-3.029-1.358-3.029-3.029
			C31.334,78.146,32.693,76.787,34.364,76.787z"/>
	</g>
</g>
</svg>
