<?xml version="1.0" encoding="utf-8"?>
<!-- Generator: Adobe Illustrator 16.0.4, SVG Export Plug-In . SVG Version: 6.00 Build 0)  -->
<!DOCTYPE svg PUBLIC "-//W3C//DTD SVG 1.1//EN" "http://www.w3.org/Graphics/SVG/1.1/DTD/svg11.dtd">
<svg version="1.1" id="Ebene_1" xmlns="http://www.w3.org/2000/svg" xmlns:xlink="http://www.w3.org/1999/xlink" x="0px" y="0px"
	 width="96px" height="96px" viewBox="0 0 96 96" enable-background="new 0 0 96 96" xml:space="preserve">
<g id="Base" display="none">
</g>
<g id="Dibujo">
	<g>
		<path d="M74.306,56.115C75.544,53.602,76.2,50.842,76.2,48c0-10.125-8.238-18.362-18.363-18.362
			c-6.032,0-11.667,2.991-15.078,7.898c-0.222-0.008-0.438-0.028-0.661-0.028c-10.052,0-18.648,6.573-21.392,15.977
			c-0.757-0.134-1.552-0.241-2.217-0.241c-7.955,0-14.427,6.475-14.427,14.431c0,7.953,6.472,14.428,14.427,14.428h47.217
			c7.958,0,14.428-6.475,14.428-14.428C80.135,62.945,77.835,58.746,74.306,56.115z M57.837,34.884
			c7.232,0,13.114,5.883,13.114,13.116c0,2.029-0.468,3.999-1.36,5.791c-1.238-0.345-2.54-0.547-3.884-0.547
			c-0.666,0-1.457,0.107-2.215,0.241c-2.11-7.226-7.68-12.766-14.704-14.95C51.201,36.236,54.421,34.884,57.837,34.884z
			 M65.707,76.854H18.49c-5.061,0-9.18-4.119-9.18-9.179c0-5.061,4.12-9.18,9.18-9.18c0.363,0,0.949,0.09,1.566,0.213v2.406
			c0,1.448,1.174,2.625,2.622,2.625c1.449,0,2.623-1.177,2.623-2.625v-4.219c1.408-8.203,8.441-14.143,16.797-14.143
			c8.358,0,15.395,5.943,16.799,14.148v4.214c0,1.448,1.175,2.625,2.626,2.625c1.441,0,2.618-1.177,2.618-2.625v-2.405
			c0.622-0.124,1.206-0.214,1.565-0.214c5.061,0,9.179,4.119,9.179,9.18C74.886,72.734,70.768,76.854,65.707,76.854z"/>
		<path d="M57.837,24.391c1.449,0,2.626-1.174,2.626-2.622v-5.247c0-1.448-1.177-2.623-2.626-2.623c-1.45,0-2.625,1.175-2.625,2.623
			v5.247C55.212,23.216,56.387,24.391,57.837,24.391z"/>
		<path d="M89.316,45.378H84.07c-1.451,0-2.624,1.173-2.624,2.622c0,1.448,1.173,2.626,2.624,2.626h5.246
			c1.446,0,2.621-1.178,2.621-2.626C91.938,46.551,90.763,45.378,89.316,45.378z"/>
		<path d="M76.388,32.074c0.67,0,1.341-0.256,1.854-0.77l3.71-3.709c1.021-1.024,1.021-2.685,0-3.708
			c-1.025-1.026-2.685-1.026-3.71,0l-3.711,3.708c-1.022,1.025-1.022,2.685,0,3.709C75.041,31.818,75.716,32.074,76.388,32.074z"/>
		<path d="M37.433,31.305c0.513,0.514,1.183,0.77,1.853,0.77c0.674,0,1.343-0.256,1.856-0.77c1.025-1.024,1.025-2.684,0-3.709
			l-3.709-3.708c-1.025-1.026-2.686-1.026-3.708,0c-1.026,1.023-1.026,2.684,0,3.708L37.433,31.305z"/>
	</g>
</g>
</svg>
