<?xml version="1.0" encoding="utf-8"?>
<!-- Generator: Adobe Illustrator 16.0.4, SVG Export Plug-In . SVG Version: 6.00 Build 0)  -->
<!DOCTYPE svg PUBLIC "-//W3C//DTD SVG 1.1//EN" "http://www.w3.org/Graphics/SVG/1.1/DTD/svg11.dtd">
<svg version="1.1" id="Ebene_1" xmlns="http://www.w3.org/2000/svg" xmlns:xlink="http://www.w3.org/1999/xlink" x="0px" y="0px"
	 width="96px" height="96px" viewBox="0 0 96 96" enable-background="new 0 0 96 96" xml:space="preserve">
<g id="Base" display="none">
</g>
<g id="Dibujo">
	<g>
		<path d="M75.272,26.791c-0.767,0-1.688,0.119-2.562,0.277C69.541,16.202,59.615,8.607,48,8.607
			c-11.61,0-21.541,7.595-24.713,18.46c-0.875-0.158-1.791-0.277-2.559-0.277c-9.188,0-16.666,7.477-16.666,16.666
			c0,9.184,7.477,16.661,16.666,16.661c1.674,0,3.029-1.35,3.029-3.029c0-1.67-1.355-3.029-3.029-3.029
			c-5.848,0-10.606-4.757-10.606-10.603c0-5.849,4.759-10.607,10.606-10.607c0.419,0,1.096,0.104,1.809,0.244v2.785
			c0,1.675,1.356,3.031,3.029,3.031c1.672,0,3.029-1.355,3.029-3.031V31C30.224,21.527,38.347,14.668,48,14.668
			S65.773,21.527,67.403,31v4.878c0,1.675,1.36,3.031,3.029,3.031c1.671,0,3.029-1.355,3.029-3.031v-2.785
			c0.718-0.141,1.39-0.244,1.811-0.244c5.847,0,10.603,4.758,10.603,10.607c0,5.846-4.756,10.603-10.603,10.603
			c-1.669,0-3.028,1.359-3.028,3.029c0,1.68,1.359,3.029,3.028,3.029c9.187,0,16.665-7.478,16.665-16.661
			C91.938,34.268,84.459,26.791,75.272,26.791z"/>
		<path d="M50.246,45.062c-1.62-0.409-3.264,0.579-3.671,2.207l-9.092,36.36c-0.407,1.624,0.584,3.268,2.206,3.672
			c0.245,0.06,0.492,0.089,0.739,0.089c1.354,0,2.591-0.914,2.938-2.296l9.087-36.362C52.865,47.109,51.874,45.469,50.246,45.062z"
			/>
		<path d="M62.373,54.15c-1.628-0.406-3.269,0.578-3.682,2.206L54.147,74.54c-0.401,1.618,0.581,3.27,2.209,3.673
			c0.244,0.062,0.49,0.09,0.732,0.09c1.358,0,2.597-0.915,2.937-2.296l4.551-18.176C64.981,56.202,63.991,54.561,62.373,54.15z"/>
		<path d="M33.582,54.15c-1.62-0.406-3.267,0.578-3.672,2.206L25.362,74.54c-0.403,1.618,0.583,3.27,2.206,3.673
			c0.247,0.062,0.495,0.09,0.738,0.09c1.355,0,2.592-0.915,2.937-2.296l4.544-18.176C36.194,56.202,35.208,54.561,33.582,54.15z"/>
	</g>
</g>
</svg>
