<?xml version="1.0" encoding="utf-8"?>
<!-- Generator: Adobe Illustrator 16.0.4, SVG Export Plug-In . SVG Version: 6.00 Build 0)  -->
<!DOCTYPE svg PUBLIC "-//W3C//DTD SVG 1.1//EN" "http://www.w3.org/Graphics/SVG/1.1/DTD/svg11.dtd">
<svg version="1.1" id="Ebene_1" xmlns="http://www.w3.org/2000/svg" xmlns:xlink="http://www.w3.org/1999/xlink" x="0px" y="0px"
	 width="96px" height="96px" viewBox="0 0 96 96" enable-background="new 0 0 96 96" xml:space="preserve">
<g id="Base" display="none">
</g>
<g id="Dibujo">
	<g>
		<path d="M51.029,58.603V40.423c0-1.671-1.359-3.031-3.029-3.031c-1.675,0-3.029,1.359-3.029,3.031v18.179
			c0,1.68,1.354,3.029,3.029,3.029C49.672,61.632,51.029,60.282,51.029,58.603z"/>
		<path d="M37.393,67.7V49.515c0-1.67-1.354-3.029-3.029-3.029c-1.67,0-3.029,1.359-3.029,3.029V67.7
			c0,1.669,1.359,3.029,3.029,3.029C36.04,70.729,37.393,69.369,37.393,67.7z"/>
		<path d="M64.67,67.7V49.515c0-1.67-1.359-3.029-3.038-3.029c-1.67,0-3.029,1.359-3.029,3.029V67.7
			c0,1.669,1.359,3.029,3.029,3.029C63.313,70.729,64.67,69.369,64.67,67.7z"/>
		<path d="M35.878,76.787h-3.029c-1.674,0-3.029,1.36-3.029,3.029v3.029c0,1.67,1.355,3.029,3.029,3.029h3.029
			c1.675,0,3.029-1.359,3.029-3.029v-3.029C38.907,78.147,37.554,76.787,35.878,76.787z"/>
		<path d="M49.515,67.7h-3.029c-1.675,0-3.029,1.357-3.029,3.029v3.028c0,1.67,1.354,3.029,3.029,3.029h3.029
			c1.67,0,3.029-1.359,3.029-3.029v-3.028C52.544,69.058,51.187,67.7,49.515,67.7z"/>
		<path d="M63.153,76.787h-3.036c-1.67,0-3.029,1.36-3.029,3.029v3.029c0,1.67,1.359,3.029,3.029,3.029h3.036
			c1.672,0,3.032-1.359,3.032-3.029v-3.029C66.186,78.147,64.828,76.787,63.153,76.787z"/>
		<path d="M75.272,28.305c-0.771,0-1.688,0.12-2.563,0.277C69.542,17.717,59.616,10.122,48,10.122
			c-11.611,0-21.541,7.595-24.715,18.46c-0.869-0.157-1.788-0.277-2.557-0.277c-9.188,0-16.666,7.477-16.666,16.666
			c0,9.184,7.477,16.661,16.666,16.661h3.029c1.674,0,3.033-1.35,3.033-3.029c0-1.67-1.359-3.029-3.033-3.029h-3.029
			c-5.848,0-10.606-4.757-10.606-10.603c0-5.845,4.759-10.607,10.606-10.607c0.419,0,1.096,0.104,1.809,0.246v2.783
			c0,1.675,1.356,3.031,3.029,3.031c1.672,0,3.029-1.355,3.029-3.031v-4.878C30.227,23.041,38.349,16.183,48,16.183
			c9.654,0,17.775,6.862,19.403,16.337v4.872c0,1.675,1.36,3.031,3.029,3.031c1.671,0,3.029-1.355,3.029-3.031V34.61
			c0.72-0.142,1.394-0.247,1.811-0.247c5.847,0,10.603,4.762,10.603,10.607c0,5.846-4.756,10.603-10.603,10.603h-3.028
			c-1.673,0-3.029,1.359-3.029,3.029c0,1.68,1.356,3.029,3.029,3.029h3.028c9.187,0,16.665-7.478,16.665-16.661
			C91.938,35.782,84.465,28.305,75.272,28.305z"/>
	</g>
</g>
</svg>
