<?xml version="1.0" encoding="utf-8"?>
<!-- Generator: Adobe Illustrator 16.0.4, SVG Export Plug-In . SVG Version: 6.00 Build 0)  -->
<!DOCTYPE svg PUBLIC "-//W3C//DTD SVG 1.1//EN" "http://www.w3.org/Graphics/SVG/1.1/DTD/svg11.dtd">
<svg version="1.1" id="Ebene_1" xmlns="http://www.w3.org/2000/svg" xmlns:xlink="http://www.w3.org/1999/xlink" x="0px" y="0px"
	 width="96px" height="96px" viewBox="0 0 96 96" enable-background="new 0 0 96 96" xml:space="preserve">
<g id="Base" display="none">
</g>
<g id="Dibujo">
	<g>
		<path d="M74.304,46.936c1.24-2.512,1.896-5.275,1.896-8.118c0-10.125-8.242-18.361-18.363-18.361
			c-6.032,0-11.668,2.992-15.078,7.896c-0.222-0.005-0.438-0.028-0.661-0.028c-10.052,0-18.649,6.574-21.395,15.981
			c-0.754-0.137-1.549-0.242-2.214-0.242c-7.954,0-14.427,6.475-14.427,14.43c0,7.949,6.473,14.424,14.427,14.424
			c1.448,0,2.625-1.177,2.625-2.621c0-1.446-1.176-2.623-2.625-2.623c-5.061,0-9.18-4.119-9.18-9.18c0-5.067,4.12-9.186,9.18-9.186
			c0.363,0,0.949,0.09,1.566,0.212v2.413c0,1.449,1.174,2.626,2.622,2.626c1.449,0,2.623-1.177,2.623-2.626v-4.222
			c1.408-8.202,8.441-14.14,16.797-14.14s15.385,5.938,16.797,14.141v4.221c0,1.449,1.177,2.626,2.626,2.626
			c1.443,0,2.618-1.177,2.618-2.626v-2.413c0.622-0.122,1.204-0.212,1.567-0.212c5.061,0,9.179,4.118,9.179,9.186
			c0,5.061-4.118,9.18-9.179,9.18c-1.448,0-2.626,1.177-2.626,2.623c0,1.444,1.178,2.621,2.626,2.621
			c7.956,0,14.428-6.475,14.428-14.424C80.135,53.759,77.835,49.567,74.304,46.936z M63.492,44.307
			c-2.11-7.229-7.68-12.769-14.706-14.953c2.413-2.3,5.635-3.65,9.051-3.65c7.232,0,13.114,5.884,13.114,13.114
			c0,2.034-0.472,4.003-1.358,5.794c-1.24-0.348-2.542-0.547-3.886-0.547C65.041,44.065,64.25,44.169,63.492,44.307z"/>
		<path d="M57.837,15.21c1.449,0,2.626-1.175,2.626-2.624V7.341c0-1.448-1.177-2.624-2.626-2.624c-1.45,0-2.625,1.176-2.625,2.624
			v5.246C55.212,14.035,56.387,15.21,57.837,15.21z"/>
		<path d="M89.316,36.195H84.07c-1.451,0-2.624,1.176-2.624,2.623c0,1.449,1.173,2.625,2.624,2.625h5.246
			c1.446,0,2.621-1.176,2.621-2.625C91.938,37.372,90.763,36.195,89.316,36.195z"/>
		<path d="M76.388,22.892c0.67,0,1.341-0.255,1.854-0.769l3.71-3.709c1.021-1.022,1.021-2.684,0-3.708
			c-1.025-1.024-2.685-1.024-3.71,0l-3.711,3.708c-1.022,1.025-1.022,2.687,0,3.709C75.041,22.637,75.716,22.892,76.388,22.892z"/>
		<path d="M37.434,22.124c0.513,0.513,1.183,0.769,1.853,0.769c0.674,0,1.343-0.255,1.856-0.769c1.025-1.023,1.025-2.685,0-3.709
			l-3.709-3.708c-1.025-1.024-2.686-1.024-3.708,0c-1.026,1.024-1.026,2.686,0,3.708L37.434,22.124z"/>
		<path d="M39.125,73.526c-0.727-1.251-2.327-1.684-3.584-0.959c-1.254,0.727-1.683,2.326-0.961,3.584l1.312,2.271
			c0.486,0.843,1.368,1.31,2.273,1.31c0.447,0,0.896-0.11,1.311-0.351c1.254-0.723,1.683-2.326,0.958-3.585L39.125,73.526z"/>
		<path d="M32.565,62.17c-0.727-1.252-2.324-1.688-3.581-0.962c-1.255,0.726-1.686,2.329-0.962,3.588l1.312,2.271
			c0.486,0.842,1.367,1.31,2.273,1.31c0.444,0,0.895-0.114,1.308-0.347c1.254-0.727,1.686-2.328,0.961-3.588L32.565,62.17z"/>
		<path d="M35.541,68.029c0.412,0.235,0.864,0.347,1.308,0.347c0.907,0,1.788-0.468,2.277-1.31l1.309-2.271
			c0.725-1.259,0.296-2.863-0.958-3.588c-1.258-0.726-2.86-0.29-3.584,0.962l-1.312,2.271C33.858,65.7,34.287,67.303,35.541,68.029z
			"/>
		<path d="M32.917,72.567c-1.258-0.726-2.857-0.293-3.582,0.959l-1.312,2.271c-0.724,1.259-0.293,2.864,0.962,3.588
			c0.412,0.237,0.864,0.348,1.307,0.348c0.907,0,1.787-0.466,2.273-1.31l1.312-2.271C34.603,74.896,34.17,73.294,32.917,72.567z"/>
		<path d="M31.606,70.298c0-1.446-1.177-2.623-2.622-2.623H26.36c-1.45,0-2.624,1.177-2.624,2.623c0,1.444,1.173,2.621,2.624,2.621
			h2.625C30.43,72.919,31.606,71.742,31.606,70.298z"/>
		<path d="M44.72,70.298c0-1.446-1.173-2.623-2.622-2.623h-2.622c-1.45,0-2.625,1.177-2.625,2.623c0,1.444,1.174,2.621,2.625,2.621
			h2.622C43.547,72.919,44.72,71.742,44.72,70.298z"/>
		<path d="M58.8,85.077c-0.728-1.257-2.327-1.688-3.588-0.962c-1.25,0.726-1.679,2.328-0.956,3.582l1.31,2.275
			c0.486,0.839,1.366,1.311,2.273,1.311c0.448,0,0.899-0.114,1.308-0.354c1.259-0.725,1.688-2.329,0.963-3.581L58.8,85.077z"/>
		<path d="M52.239,73.718c-0.728-1.257-2.327-1.688-3.581-0.96c-1.254,0.725-1.687,2.329-0.962,3.581l1.309,2.271
			c0.486,0.843,1.367,1.314,2.273,1.314c0.448,0,0.899-0.112,1.314-0.351c1.252-0.726,1.681-2.329,0.956-3.584L52.239,73.718z"/>
		<path d="M55.212,79.573c0.415,0.239,0.868,0.351,1.312,0.351c0.902,0,1.789-0.472,2.275-1.314l1.31-2.271
			c0.725-1.252,0.296-2.857-0.963-3.581c-1.254-0.728-2.857-0.297-3.581,0.96l-1.31,2.271
			C53.533,77.244,53.962,78.848,55.212,79.573z"/>
		<path d="M52.593,84.114c-1.261-0.725-2.864-0.296-3.588,0.963l-1.309,2.271c-0.725,1.252-0.292,2.857,0.962,3.58
			c0.408,0.241,0.861,0.355,1.308,0.355c0.907,0,1.787-0.472,2.273-1.311l1.31-2.275C54.273,86.443,53.845,84.84,52.593,84.114z"/>
		<path d="M51.276,81.845c0-1.449-1.177-2.626-2.618-2.626h-2.625c-1.451,0-2.622,1.177-2.622,2.626
			c0,1.448,1.171,2.626,2.622,2.626h2.625C50.1,84.471,51.276,83.293,51.276,81.845z"/>
		<path d="M61.772,79.219h-2.626c-1.45,0-2.618,1.177-2.618,2.626c0,1.448,1.168,2.626,2.618,2.626h2.626
			c1.448,0,2.624-1.178,2.624-2.626C64.396,80.396,63.221,79.219,61.772,79.219z"/>
	</g>
</g>
</svg>
