<?xml version="1.0" encoding="utf-8"?>
<!-- Generator: Adobe Illustrator 16.0.4, SVG Export Plug-In . SVG Version: 6.00 Build 0)  -->
<!DOCTYPE svg PUBLIC "-//W3C//DTD SVG 1.1//EN" "http://www.w3.org/Graphics/SVG/1.1/DTD/svg11.dtd">
<svg version="1.1" id="Ebene_1" xmlns="http://www.w3.org/2000/svg" xmlns:xlink="http://www.w3.org/1999/xlink" x="0px" y="0px"
	 width="96px" height="96px" viewBox="0 0 96 96" enable-background="new 0 0 96 96" xml:space="preserve">
<g id="Base" display="none">
</g>
<g id="Dibujo">
	<path d="M57.415,14.105c1.388,0,2.514-1.124,2.514-2.51V6.573c0-1.385-1.126-2.51-2.514-2.51s-2.512,1.125-2.512,2.51v5.022
		C54.903,12.981,56.027,14.105,57.415,14.105z M73.177,44.469c1.187-2.404,1.814-5.047,1.814-7.768
		c0-9.69-7.888-17.575-17.576-17.575c-5.773,0-11.167,2.865-14.431,7.56c-0.212-0.007-0.42-0.026-0.633-0.026
		c-9.621,0-17.85,6.291-20.477,15.295c-0.723-0.131-1.482-0.231-2.119-0.231c-7.613,0-13.809,6.194-13.809,13.81
		c0,7.613,6.195,13.809,13.809,13.809h14.14l-4.93,7.396c-0.513,0.768-0.561,1.76-0.126,2.577c0.44,0.815,1.29,1.325,2.214,1.325
		h2.842l-4.93,7.394c-0.768,1.156-0.457,2.712,0.697,3.483c0.428,0.285,0.912,0.42,1.39,0.42c0.811,0,1.606-0.391,2.091-1.116
		l7.531-11.298c0.515-0.772,0.562-1.762,0.126-2.577c-0.438-0.816-1.29-1.328-2.215-1.328h-2.84l4.185-6.275h6.518l-2.419,3.63
		c-0.515,0.766-0.561,1.76-0.127,2.577c0.439,0.815,1.292,1.326,2.217,1.326h2.84l-2.419,3.628c-0.768,1.154-0.455,2.709,0.696,3.48
		c0.429,0.288,0.913,0.421,1.393,0.421c0.812,0,1.604-0.392,2.09-1.117l5.02-7.53c0.517-0.773,0.56-1.762,0.124-2.578
		c-0.437-0.815-1.286-1.327-2.212-1.327h-2.842l1.676-2.51h12.465c7.615,0,13.81-6.195,13.81-13.809
		C78.758,51.006,76.556,46.988,73.177,44.469z M57.415,24.149c6.923,0,12.553,5.631,12.553,12.552c0,1.944-0.452,3.83-1.3,5.545
		c-1.188-0.333-2.434-0.523-3.72-0.523c-0.638,0-1.395,0.1-2.12,0.231c-2.02-6.92-7.351-12.222-14.076-14.312
		C51.062,25.442,54.146,24.149,57.415,24.149z M64.948,64.318H19.755c-4.844,0-8.787-3.941-8.787-8.785s3.943-8.79,8.787-8.79
		c0.348,0,0.908,0.086,1.499,0.204v2.307c0,1.386,1.123,2.512,2.51,2.512c1.388,0,2.511-1.126,2.511-2.512v-4.039
		c1.348-7.851,8.079-13.535,16.077-13.535c7.998,0,14.726,5.685,16.078,13.536v4.038c0,1.386,1.126,2.512,2.513,2.512
		c1.383,0,2.507-1.126,2.507-2.512v-2.306c0.595-0.118,1.156-0.205,1.5-0.205c4.844,0,8.785,3.946,8.785,8.79
		S69.792,64.318,64.948,64.318z M75.171,21.458c0.642,0,1.284-0.245,1.774-0.736l3.55-3.551c0.979-0.979,0.979-2.568,0-3.549
		c-0.98-0.98-2.568-0.98-3.55,0l-3.552,3.549c-0.979,0.982-0.979,2.57,0,3.551C73.883,21.213,74.527,21.458,75.171,21.458z
		 M37.886,20.722c0.491,0.491,1.132,0.736,1.773,0.736c0.645,0,1.286-0.245,1.777-0.736c0.981-0.98,0.981-2.569,0-3.551l-3.55-3.549
		c-0.981-0.98-2.571-0.98-3.549,0c-0.982,0.981-0.982,2.57,0,3.549L37.886,20.722z M87.545,34.191h-5.021
		c-1.389,0-2.512,1.124-2.512,2.51c0,1.387,1.123,2.51,2.512,2.51h5.021c1.384,0,2.509-1.123,2.509-2.51
		C90.054,35.315,88.929,34.191,87.545,34.191z"/>
</g>
</svg>
