<?xml version="1.0" encoding="utf-8"?>
<!-- Generator: Adobe Illustrator 16.0.4, SVG Export Plug-In . SVG Version: 6.00 Build 0)  -->
<!DOCTYPE svg PUBLIC "-//W3C//DTD SVG 1.1//EN" "http://www.w3.org/Graphics/SVG/1.1/DTD/svg11.dtd">
<svg version="1.1" id="Ebene_1" xmlns="http://www.w3.org/2000/svg" xmlns:xlink="http://www.w3.org/1999/xlink" x="0px" y="0px"
	 width="96px" height="96px" viewBox="0 0 96 96" enable-background="new 0 0 96 96" xml:space="preserve">
<g id="Base" display="none">
</g>
<g id="Dibujo">
	<g>
		<path d="M12.512,10.823h70.974c1.869,0,3.383-1.514,3.383-3.379c0-1.866-1.514-3.38-3.383-3.38H12.512
			c-1.865,0-3.379,1.514-3.379,3.38C9.133,9.309,10.647,10.823,12.512,10.823z"/>
		<path d="M83.485,17.582H17.582c-1.866,0-3.379,1.514-3.379,3.379s1.513,3.38,3.379,3.38h65.903c1.869,0,3.383-1.514,3.383-3.38
			S85.354,17.582,83.485,17.582z"/>
		<path d="M76.729,34.479c0-1.865-1.517-3.379-3.382-3.379H12.512c-1.865,0-3.379,1.514-3.379,3.379
			c0,1.867,1.514,3.381,3.379,3.381h60.836C75.213,37.86,76.729,36.347,76.729,34.479z"/>
		<path d="M83.485,44.622H27.721c-1.865,0-3.379,1.514-3.379,3.378c0,1.87,1.514,3.38,3.379,3.38h55.765
			c1.869,0,3.383-1.511,3.383-3.38C86.868,46.135,85.354,44.622,83.485,44.622z"/>
		<path d="M73.348,58.142H42.929c-1.864,0-3.378,1.512-3.378,3.381c0,1.858,1.514,3.375,3.378,3.375h30.418
			c1.865,0,3.382-1.517,3.382-3.375C76.729,59.653,75.213,58.142,73.348,58.142z"/>
		<path d="M63.208,71.654H42.929c-1.864,0-3.378,1.52-3.378,3.384s1.514,3.382,3.378,3.382h20.279c1.866,0,3.38-1.518,3.38-3.382
			S65.074,71.654,63.208,71.654z"/>
		<path d="M53.065,85.176H42.929c-1.864,0-3.378,1.518-3.378,3.384c0,1.86,1.514,3.378,3.378,3.378h10.136
			c1.869,0,3.385-1.518,3.385-3.378C56.45,86.693,54.935,85.176,53.065,85.176z"/>
	</g>
</g>
</svg>
