<?xml version="1.0" encoding="utf-8"?>
<!-- Generator: Adobe Illustrator 16.0.4, SVG Export Plug-In . SVG Version: 6.00 Build 0)  -->
<!DOCTYPE svg PUBLIC "-//W3C//DTD SVG 1.1//EN" "http://www.w3.org/Graphics/SVG/1.1/DTD/svg11.dtd">
<svg version="1.1" id="Ebene_1" xmlns="http://www.w3.org/2000/svg" xmlns:xlink="http://www.w3.org/1999/xlink" x="0px" y="0px"
	 width="96px" height="96px" viewBox="0 0 96 96" enable-background="new 0 0 96 96" xml:space="preserve">
<g id="Base" display="none">
</g>
<g id="Dibujo">
	<g>
		<path d="M75.272,22.243c-0.771,0-1.688,0.12-2.563,0.28C69.542,11.657,59.615,4.063,48,4.063c-11.611,0-21.542,7.594-24.715,18.46
			c-0.874-0.16-1.789-0.28-2.557-0.28c-9.188,0-16.666,7.477-16.666,16.664c0,9.188,7.477,16.666,16.666,16.666h10.606v24.243
			c0,1.67,1.354,3.029,3.029,3.029s3.029-1.359,3.029-3.029V55.573h21.21v24.243c0,1.67,1.357,3.029,3.029,3.029
			c1.679,0,3.038-1.359,3.038-3.029V55.573h10.603c9.187,0,16.665-7.478,16.665-16.666C91.938,29.72,84.459,22.243,75.272,22.243z
			 M75.272,49.515H20.729c-5.847,0-10.606-4.756-10.606-10.607c0-5.845,4.76-10.602,10.606-10.602c0.419,0,1.096,0.1,1.809,0.245
			v2.785c0,1.671,1.356,3.029,3.029,3.029c1.672,0,3.029-1.358,3.029-3.029v-4.876c1.625-9.475,9.75-16.336,19.404-16.336
			c9.653,0,17.773,6.862,19.403,16.337v4.875c0,1.671,1.359,3.029,3.029,3.029c1.672,0,3.029-1.358,3.029-3.029v-2.784
			c0.718-0.141,1.394-0.246,1.811-0.246c5.847,0,10.603,4.757,10.603,10.602C85.875,44.758,81.119,49.515,75.272,49.515z"/>
		<path d="M48,58.603c-1.676,0-3.029,1.359-3.029,3.029v27.272c0,1.677,1.353,3.033,3.029,3.033c1.67,0,3.029-1.356,3.029-3.033
			V61.632C51.029,59.962,49.67,58.603,48,58.603z"/>
	</g>
</g>
</svg>
