<?xml version="1.0" encoding="utf-8"?>
<!-- Generator: Adobe Illustrator 16.0.4, SVG Export Plug-In . SVG Version: 6.00 Build 0)  -->
<!DOCTYPE svg PUBLIC "-//W3C//DTD SVG 1.1//EN" "http://www.w3.org/Graphics/SVG/1.1/DTD/svg11.dtd">
<svg version="1.1" id="Ebene_1" xmlns="http://www.w3.org/2000/svg" xmlns:xlink="http://www.w3.org/1999/xlink" x="0px" y="0px"
	 width="96px" height="96px" viewBox="0 0 96 96" enable-background="new 0 0 96 96" xml:space="preserve">
<g id="Base" display="none">
</g>
<g id="Dibujo">
	<g>
		<path d="M70.637,38.679c2.937,0,5.324,2.389,5.324,5.326s-2.388,5.327-5.324,5.327H42.674c-1.471,0-2.663,1.19-2.663,2.663
			c0,1.465,1.192,2.663,2.663,2.663h27.963c5.873,0,10.65-4.78,10.65-10.653c0-5.873-4.777-10.652-10.65-10.652
			c-1.475,0-2.663,1.193-2.663,2.663C67.974,37.485,69.162,38.679,70.637,38.679z"/>
		<path d="M66.642,57.321L26.695,57.32l-7.986,0.001c-5.139,0-9.32-4.181-9.32-9.321c0-5.136,4.182-9.321,9.32-9.321
			c0.368,0,0.963,0.09,1.589,0.216v2.447c0,1.469,1.193,2.663,2.664,2.663c1.469,0,2.663-1.194,2.663-2.663v-4.291
			c1.429-8.323,8.569-14.349,17.049-14.349c9.542,0,17.311,7.766,17.311,17.308v1.332c0,1.469,1.188,2.663,2.663,2.663
			c1.465,0,2.663-1.194,2.663-2.663v-1.332c0-12.48-10.158-22.633-22.637-22.633c-10.204,0-18.932,6.674-21.718,16.222
			c-0.769-0.141-1.573-0.246-2.247-0.246c-8.076,0-14.646,6.57-14.646,14.646s6.57,14.647,14.646,14.647l7.986-0.001l39.947,0.001
			c5.139,0,9.319,4.181,9.319,9.32c0,1.466,1.19,2.661,2.663,2.661c1.468,0,2.663-1.195,2.663-2.661
			C81.287,63.892,74.713,57.321,66.642,57.321z"/>
		<path d="M66.641,65.311H18.709c-1.472,0-2.663,1.19-2.663,2.663c0,1.466,1.191,2.663,2.663,2.663h47.932
			c0.733,0,1.332,0.592,1.332,1.331c0,0.733-0.599,1.332-1.332,1.332c-1.474,0-2.663,1.19-2.663,2.661
			c0,1.468,1.189,2.663,2.663,2.663c3.669,0,6.657-2.987,6.657-6.656C73.298,68.292,70.31,65.311,66.641,65.311z"/>
		<path d="M85.282,46.668c-1.473,0-2.664,1.194-2.664,2.664c0,1.472,1.191,2.663,2.664,2.663c0.734,0,1.331,0.599,1.331,1.331
			s-0.597,1.332-1.331,1.332h-5.327c-1.472,0-2.663,1.19-2.663,2.663c0,1.465,1.191,2.663,2.663,2.663h5.327
			c3.669,0,6.655-2.989,6.655-6.658S88.951,46.668,85.282,46.668z"/>
	</g>
</g>
</svg>
